<?xml version="1.0" standalone="no"?>
<!DOCTYPE svg PUBLIC "-//W3C//DTD SVG 20010904//EN"
 "http://www.w3.org/TR/2001/REC-SVG-20010904/DTD/svg10.dtd">
<svg version="1.0" xmlns="http://www.w3.org/2000/svg"
 width="400.000000pt" height="400.000000pt" viewBox="0 0 400.000000 400.000000"
 preserveAspectRatio="xMidYMid meet" fill="currentColor">

<g transform="translate(0.000000,400.000000) scale(0.100000,-0.100000)"
 stroke="none">
<path d="M1890 3983 c-313 -33 -614 -201 -795 -441 -314 -418 -312 -951 5
-1380 l21 -28 -37 -70 c-20 -38 -55 -105 -79 -149 -94 -178 -175 -342 -175
-357 0 -8 9 -27 21 -42 28 -35 64 -34 262 8 l159 34 36 -59 c21 -33 64 -104
97 -159 67 -111 98 -135 143 -109 25 14 38 37 188 329 l84 165 178 0 178 1
120 -234 c65 -128 130 -242 143 -253 31 -25 63 -24 88 4 11 12 60 88 109 169
63 106 93 146 104 143 50 -16 312 -65 347 -65 32 0 46 5 57 22 33 47 36 41
-191 476 l-74 143 58 87 c142 211 197 391 197 642 0 150 -11 223 -55 358 -90
273 -303 517 -567 647 -189 93 -429 139 -622 118z m299 -168 c310 -59 576
-266 707 -549 172 -374 94 -806 -199 -1100 -156 -156 -332 -246 -557 -282
-115 -19 -187 -18 -311 5 -360 65 -650 316 -769 665 -11 33 -28 112 -37 177
-15 102 -16 130 -5 218 21 168 60 286 136 415 56 95 191 235 290 300 114 76
282 142 401 159 76 10 269 6 344 -8z m-759 -1939 c41 -23 111 -58 155 -76 44
-18 82 -34 84 -36 7 -6 -153 -313 -160 -308 -4 2 -37 55 -73 117 -38 66 -76
119 -90 127 -21 11 -44 9 -161 -15 -75 -15 -139 -25 -142 -21 -3 3 -1 11 4 18
6 7 45 81 88 163 42 83 81 155 87 162 7 9 26 -1 71 -38 34 -28 96 -69 137 -93z
m1443 -48 c48 -93 82 -168 76 -168 -6 0 -69 12 -140 27 -102 21 -134 24 -153
15 -15 -7 -52 -57 -96 -132 -40 -67 -76 -118 -80 -113 -6 6 -138 261 -158 305
-2 3 21 14 50 23 83 27 236 111 318 174 55 42 78 55 86 47 6 -6 50 -86 97
-178z"/>
<path d="M2153 3083 l-302 -308 -143 143 c-119 118 -148 142 -173 142 -24 0
-48 -19 -132 -103 -91 -91 -103 -107 -103 -137 0 -32 21 -56 263 -297 225
-226 267 -263 292 -263 26 0 86 56 452 423 509 508 477 447 320 604 -91 91
-107 103 -138 103 -32 0 -55 -21 -336 -307z m375 94 l32 -33 -353 -352 -353
-353 -192 193 -191 193 32 33 32 33 144 -146 c123 -124 149 -145 175 -145 28
-1 64 32 331 304 165 168 302 306 306 306 3 0 19 -15 37 -33z"/>
<path d="M2663 1340 c-12 -5 -26 -18 -32 -29 -8 -13 -11 -204 -11 -585 l0
-566 -170 0 -170 0 0 459 0 459 -31 26 -31 26 -222 0 c-223 0 -223 0 -250 -25
l-26 -24 0 -461 0 -460 -135 0 -135 0 0 333 0 334 -23 21 c-23 21 -31 22 -250
22 -214 0 -228 -1 -247 -20 -19 -19 -20 -33 -20 -355 l0 -335 -94 0 c-87 0
-95 -2 -120 -26 -38 -38 -32 -90 14 -114 15 -8 1646 -14 2558 -10 37 0 68 81
44 116 -14 22 -51 34 -101 34 l-51 0 0 569 c0 545 -1 570 -19 592 -19 24 -21
24 -238 26 -120 1 -228 -2 -240 -7z m347 -660 l0 -520 -125 0 -125 0 0 520 0
520 125 0 125 0 0 -520z m-880 288 c0 -5 0 -188 0 -408 l0 -401 -130 3 -131 3
0 403 c1 221 1 404 1 407 0 9 260 1 260 -7z m-822 -525 l2 -283 -130 0 -130 0
0 278 c0 153 3 282 7 286 4 3 61 5 127 4 l121 -3 3 -282z"/>
</g>
</svg>
