<?xml version="1.0" standalone="no"?>
<!DOCTYPE svg PUBLIC "-//W3C//DTD SVG 20010904//EN"
 "http://www.w3.org/TR/2001/REC-SVG-20010904/DTD/svg10.dtd">
<svg version="1.0" xmlns="http://www.w3.org/2000/svg"
 width="400.000000pt" height="400.000000pt" viewBox="0 0 400.000000 400.000000"
 preserveAspectRatio="xMidYMid meet" fill="currentColor">

<g transform="translate(0.000000,400.000000) scale(0.100000,-0.100000)"
stroke="none">
<path d="M865 3943 c-235 -50 -464 -192 -617 -382 -243 -302 -302 -701 -167
-1124 57 -178 197 -434 340 -622 l37 -49 -64 -16 c-98 -25 -154 -87 -154 -173
0 -87 91 -296 198 -457 66 -98 214 -256 321 -342 159 -128 496 -337 992 -616
154 -87 226 -122 249 -122 51 0 702 369 1012 573 331 219 509 401 642 657 103
200 128 306 90 385 -22 47 -92 93 -155 101 l-47 6 61 81 c191 254 313 514 367
782 31 153 25 382 -13 527 -103 390 -391 673 -797 785 -95 26 -416 26 -515 -1
-218 -57 -376 -148 -526 -303 -47 -49 -93 -99 -102 -113 l-17 -24 -17 24 c-37
54 -180 193 -248 240 -134 92 -276 152 -437 185 -100 20 -337 19 -433 -2z
m475 -163 c164 -47 317 -136 431 -250 60 -60 139 -164 139 -182 0 -5 -13 -8
-28 -8 -44 0 -179 -38 -262 -73 -280 -121 -486 -390 -530 -695 -11 -75 -14
-81 -41 -92 -44 -18 -108 -86 -132 -138 -32 -70 -30 -180 5 -248 39 -75 117
-140 190 -158 20 -4 33 -18 47 -51 86 -195 317 -403 529 -476 125 -43 185 -53
317 -53 140 0 231 18 355 68 195 79 372 245 477 445 24 46 35 57 70 68 56 19
138 94 169 154 29 59 40 149 25 206 -18 65 -70 134 -127 168 l-51 30 -11 78
c-38 264 -202 505 -441 647 -86 51 -239 106 -320 116 -33 3 -61 10 -61 15 0 4
27 44 60 87 129 171 315 293 530 348 59 15 109 19 235 18 144 0 169 -3 248
-27 414 -127 676 -481 677 -913 1 -397 -249 -883 -641 -1247 l-83 -77 -28 27
c-40 38 -117 43 -176 11 -90 -49 -575 -414 -629 -473 -65 -71 -152 -197 -223
-322 -29 -51 -55 -93 -59 -93 -3 0 -33 48 -66 106 -74 130 -196 295 -268 360
-56 51 -538 405 -585 430 -54 28 -146 13 -181 -30 -11 -14 -21 -9 -74 37 -96
83 -281 300 -377 444 -145 218 -240 437 -274 638 -92 531 217 1003 735 1120
96 22 331 14 429 -15z m766 -591 c191 -26 391 -138 499 -279 59 -77 109 -171
134 -254 12 -37 21 -70 21 -72 0 -19 -180 18 -282 57 -155 60 -305 185 -377
315 -45 80 -59 94 -95 94 -41 0 -46 -5 -90 -78 -74 -122 -194 -231 -332 -300
-65 -33 -229 -85 -302 -96 l-44 -7 7 33 c23 107 113 275 193 362 38 40 136
108 209 145 152 77 297 103 459 80z m-73 -403 c151 -198 395 -326 668 -351
l75 -7 -3 -77 c-9 -229 -12 -258 -37 -330 -67 -192 -205 -346 -391 -436 -114
-55 -205 -75 -340 -75 -138 0 -226 20 -351 80 -214 103 -378 314 -413 530 -6
36 -11 118 -11 182 l0 117 38 6 c315 51 490 136 657 318 39 42 73 76 76 77 4
0 18 -15 32 -34z m-948 -664 c-2 -2 -11 8 -20 22 -26 40 -30 97 -9 137 l19 34
6 -95 c4 -52 5 -97 4 -98z m1866 149 c14 -48 5 -102 -22 -133 l-21 -23 6 25
c3 14 6 58 6 98 0 79 13 93 31 33z m-2473 -677 c15 -9 50 -44 77 -77 103 -126
258 -277 349 -339 50 -34 123 -87 161 -118 39 -31 80 -62 92 -69 55 -28 117
31 93 89 -7 16 -55 68 -108 117 -149 136 -169 159 -177 193 -7 32 14 70 39 70
6 0 70 -43 141 -96 72 -53 191 -141 266 -195 196 -142 266 -222 409 -469 92
-159 105 -177 142 -196 38 -20 78 -11 111 24 14 15 62 90 106 166 159 273 212
330 489 531 316 229 326 237 345 229 24 -9 32 -48 17 -83 -6 -16 -72 -84 -145
-151 -143 -130 -161 -158 -131 -204 18 -29 59 -40 88 -25 12 6 55 38 97 71 41
33 109 83 150 110 115 77 194 150 314 291 115 134 130 147 172 147 46 0 51
-35 16 -123 -132 -333 -314 -531 -721 -788 -246 -155 -503 -307 -737 -435
l-133 -73 -172 96 c-218 121 -638 372 -786 470 -293 193 -443 350 -564 590
-30 60 -65 134 -78 166 -22 55 -22 58 -5 77 22 24 48 25 83 4z"/>
<path d="M1599 2327 c-84 -45 -120 -146 -64 -183 34 -22 66 -12 89 28 36 61
56 63 90 9 28 -44 55 -57 86 -41 67 36 25 157 -67 196 -46 20 -84 17 -134 -9z"/>
<path d="M2265 2336 c-99 -45 -132 -172 -51 -201 29 -10 37 -4 86 66 22 30 56
18 75 -26 28 -69 115 -51 115 24 0 101 -129 180 -225 137z"/>
<path d="M1724 1935 c-10 -16 -14 -34 -10 -50 11 -42 74 -103 144 -137 59 -29
76 -33 147 -33 67 0 89 5 136 28 62 30 135 101 145 141 9 39 -19 76 -57 76
-23 0 -45 -12 -81 -45 -98 -88 -209 -85 -303 9 -45 45 -95 50 -121 11z"/>
</g>
</svg>
