<?xml version="1.0" standalone="no"?>
<!DOCTYPE svg PUBLIC "-//W3C//DTD SVG 20010904//EN"
 "http://www.w3.org/TR/2001/REC-SVG-20010904/DTD/svg10.dtd">
<svg version="1.0" xmlns="http://www.w3.org/2000/svg"
 width="400.000000pt" height="400.000000pt" viewBox="0 0 400.000000 400.000000"
 preserveAspectRatio="xMidYMid meet" fill="currentColor">

<g transform="translate(0.000000,400.000000) scale(0.100000,-0.100000)"
 stroke="none">
<path d="M133 3796 c-102 -48 -138 -137 -131 -317 3 -81 9 -113 25 -145 30
-58 84 -101 148 -119 l54 -16 3 -1252 c4 -1239 4 -1253 24 -1313 36 -105 86
-186 159 -260 108 -108 217 -162 379 -185 69 -10 94 -10 166 5 214 43 377 168
464 357 46 100 56 163 56 357 l0 164 42 -36 c37 -32 117 -66 154 -66 7 0 21
-16 33 -35 29 -50 75 -75 139 -75 29 0 66 7 81 15 36 18 81 71 81 94 0 14 25
24 127 51 71 19 130 34 133 34 3 1 11 -24 18 -54 48 -205 142 -418 221 -499
91 -93 205 -120 304 -72 128 62 256 292 318 574 6 31 13 57 15 57 1 0 14 -4
28 -10 14 -5 69 -21 123 -35 458 -122 689 -33 682 265 -1 36 2 90 6 121 5 37
3 70 -5 93 -14 43 -72 94 -116 102 -23 4 -45 21 -75 57 -24 29 -77 87 -117
129 l-75 77 83 93 c210 236 301 402 303 554 2 186 -174 295 -427 264 -108 -13
-189 -31 -309 -67 -52 -15 -91 -23 -96 -17 -4 5 -17 50 -30 99 l-22 90 21 40
c47 92 -1 208 -99 234 -16 5 -36 25 -54 57 -116 199 -318 225 -462 61 -81 -93
-171 -301 -221 -511 -16 -69 -20 -77 -39 -73 -11 3 -81 21 -155 40 -74 19
-183 40 -243 47 -93 10 -117 10 -181 -4 -70 -16 -166 -66 -166 -87 0 -5 -4 -9
-10 -9 -6 0 -10 95 -10 264 l0 265 55 16 c64 18 117 61 148 119 19 36 21 57
21 181 0 157 -12 196 -75 249 -68 58 -44 56 -773 56 l-671 0 -52 -24z m1399
-156 l30 -30 -4 -104 c-5 -163 78 -146 -704 -146 l-663 0 -20 26 c-18 23 -21
41 -21 121 0 100 14 148 47 156 10 3 307 5 661 6 l644 1 30 -30z m1247 -435
c16 -14 40 -41 51 -60 l22 -35 -21 -43 c-12 -24 -21 -58 -21 -75 0 -73 57
-145 124 -158 33 -6 35 -8 55 -90 29 -117 29 -118 -26 -139 -27 -10 -94 -39
-150 -66 l-103 -48 -117 53 c-65 29 -135 59 -156 65 -28 10 -36 17 -33 29 3
10 10 40 17 67 24 106 72 244 119 340 81 168 163 223 239 160z m-1449 -516 l0
-511 -117 5 c-139 5 -192 22 -333 102 -153 86 -200 100 -363 100 l-137 0 0
408 0 407 475 0 475 0 0 -511z m640 -79 c52 -11 135 -32 183 -47 l89 -27 -6
-35 c-10 -60 -25 -172 -31 -248 l-7 -71 -81 -63 c-45 -34 -107 -84 -138 -111
l-57 -48 -71 76 c-96 103 -193 233 -233 313 -44 89 -51 182 -17 225 12 15 36
34 53 42 46 20 205 17 316 -6z m1823 -13 c80 -61 64 -162 -52 -339 -66 -98
-226 -286 -247 -287 -5 -1 -35 20 -65 45 -30 26 -88 74 -131 106 -86 67 -79
49 -104 258 -9 74 -18 138 -21 142 -5 10 27 22 137 54 158 45 211 53 331 51
109 -2 118 -4 152 -30z m-1332 -148 c41 -17 78 -34 82 -38 4 -4 -38 -35 -94
-69 l-102 -62 7 68 c9 93 17 132 26 132 4 0 41 -14 81 -31z m584 -1 c8 -45 23
-163 21 -165 -2 -3 -191 118 -193 125 -3 7 133 70 154 71 7 1 15 -14 18 -31z
m-256 -159 c42 -23 124 -73 182 -111 l106 -68 7 -53 c8 -68 8 -264 -1 -362
l-6 -77 -84 -55 c-100 -64 -264 -153 -283 -153 -20 0 -162 75 -272 143 -117
73 -110 51 -106 347 l3 205 75 52 c66 45 287 173 299 173 2 0 38 -19 80 -41z
m-1176 -191 c31 -40 87 -107 126 -150 39 -42 71 -79 71 -83 0 -3 -37 -48 -83
-98 -99 -110 -163 -193 -211 -273 l-36 -59 0 435 0 435 39 -67 c22 -37 64
-100 94 -140z m-936 127 c26 -8 79 -33 118 -56 160 -97 272 -131 432 -133
l103 -1 0 -657 c0 -616 -1 -660 -19 -717 -86 -277 -408 -411 -670 -279 -122
62 -222 192 -250 326 -7 36 -11 291 -11 787 l0 734 38 6 c20 4 44 8 52 10 28
7 158 -6 207 -20z m1509 -483 c-5 -5 -156 119 -156 128 1 3 36 33 78 67 l77
62 3 -126 c1 -69 0 -128 -2 -131z m1132 187 c41 -34 70 -64 65 -68 -4 -4 -35
-30 -68 -57 -91 -77 -85 -82 -85 60 0 69 3 126 8 126 4 0 40 -28 80 -61z
m-1125 -378 c4 -4 14 -66 23 -137 8 -71 18 -148 23 -172 6 -30 5 -45 -3 -47
-34 -13 -189 -55 -220 -60 -29 -6 -41 -3 -66 19 -61 50 -147 46 -210 -10 -47
-43 -80 -41 -126 7 -26 27 -29 37 -29 97 0 56 6 79 32 132 39 79 144 220 236
317 l68 71 132 -105 c73 -58 136 -108 140 -112z m1454 51 l45 -52 -22 -51
c-47 -111 7 -206 133 -233 24 -6 27 -11 27 -47 0 -33 -6 -47 -33 -74 -39 -39
-106 -52 -220 -41 -147 14 -405 80 -400 102 1 5 9 83 20 173 l18 165 59 45
c33 25 96 77 140 114 l81 68 54 -58 c29 -32 73 -82 98 -111z m-1195 -217 c51
-31 94 -58 96 -60 5 -4 -104 -56 -145 -69 -19 -6 -22 -1 -31 46 -16 83 -23
138 -17 138 3 0 47 -25 97 -55z m599 -49 c-5 -43 -11 -80 -14 -82 -5 -5 -148
53 -160 65 -4 4 34 33 85 63 58 35 94 51 96 43 2 -7 -1 -47 -7 -89z m-186
-166 c77 -34 142 -63 144 -65 5 -6 -49 -203 -75 -273 -66 -176 -150 -282 -224
-282 -72 0 -150 89 -210 240 -25 61 -75 229 -85 283 -7 34 -6 34 52 57 32 13
99 43 148 66 50 24 95 41 100 39 6 -2 73 -31 150 -65z"/>
<path d="M2615 2091 c-79 -36 -145 -137 -145 -224 0 -48 34 -121 75 -162 79
-80 181 -93 277 -37 58 33 94 80 114 150 14 47 14 57 0 105 -9 29 -29 72 -46
96 -59 81 -184 114 -275 72z"/>
</g>
</svg>
